<svg width="20" height="20" viewBox="0 0 20 20" fill="none" xmlns="http://www.w3.org/2000/svg">
<path fill-rule="evenodd" clip-rule="evenodd" d="M9.9999 19.6C15.3018 19.6 19.5999 15.302 19.5999 10C19.5999 4.69809 15.3018 0.400024 9.9999 0.400024C4.69797 0.400024 0.399902 4.69809 0.399902 10C0.399902 15.302 4.69797 19.6 9.9999 19.6ZM14.4484 8.44855C14.9171 7.97992 14.9171 7.22013 14.4484 6.7515C13.9798 6.28287 13.22 6.28287 12.7514 6.7515L8.7999 10.703L7.24843 9.1515C6.7798 8.68287 6.02 8.68287 5.55137 9.1515C5.08275 9.62013 5.08275 10.3799 5.55137 10.8486L7.95137 13.2486C8.42 13.7172 9.1798 13.7172 9.64843 13.2486L14.4484 8.44855Z" fill="#46B277"/>
</svg>
